<?xml version="1.0" encoding="UTF-8"?>
<svg width="56px" height="56px" viewBox="0 0 56 56" version="1.1" xmlns="http://www.w3.org/2000/svg" xmlns:xlink="http://www.w3.org/1999/xlink">
    <g id="Icon-/-币种-/-" stroke="none" stroke-width="1" fill="none" fill-rule="evenodd">
        <circle id="椭圆形" fill="#4FC47F" cx="28" cy="28" r="28"></circle>
        <path d="M27.6843473,11.9817047 C28.9462923,11.9817047 30.1889754,12.1278803 31.3954927,12.4151078 C32.1643857,12.598153 32.6393092,13.3698515 32.4562639,14.1387446 C32.2732187,14.9076376 31.5015202,15.3825611 30.7326272,15.1995158 C29.7430559,14.9639352 28.722833,14.8439274 27.6843473,14.8439274 C20.3667435,14.8439274 14.4311114,20.8241841 14.4311114,28.2075615 C14.4311114,35.5889544 20.3670628,41.5688886 27.6843473,41.5688886 C34.9996614,41.5688886 40.9352936,35.5886319 40.9352936,28.2075615 C40.9352936,27.1179193 40.807519,26.0498356 40.5567558,25.018188 C40.3700733,24.25017 40.8413388,23.4762322 41.6093568,23.2895497 C42.3773749,23.1028671 43.1513126,23.5741327 43.3379952,24.3421507 C43.6425911,25.595268 43.7975163,26.8903068 43.7975163,28.2075615 C43.7975163,37.1646148 36.5852422,44.4311114 27.6843473,44.4311114 C18.7815516,44.4311114 11.5688886,37.1650057 11.5688886,28.2075615 C11.5688886,19.2482012 18.7811627,11.9817047 27.6843473,11.9817047 Z M40.735167,9 L41.4656062,14.4537312 L47,15.3119326 L39.8604717,22.5051365 L36.0668886,22.044 L31.9229544,26.221862 C32.2361805,26.8585193 32.4122813,27.575902 32.4122813,28.3349075 C32.4122813,30.9671864 30.2942365,33.0988479 27.6838894,33.0988479 C25.0712525,33.0988479 22.9554975,30.9671864 22.9554975,28.3349075 C22.9554975,25.7026286 25.0712525,23.5709672 27.6838894,23.5709672 C28.5030854,23.5709672 29.273796,23.7809082 29.945773,24.1503783 L33.9858886,20.079 L33.5933489,16.1932039 L40.735167,9 Z" id="形状结合" fill="#FFFFFF" fill-rule="nonzero"></path>
    </g>
</svg>